<mxfile host="app.diagrams.net" modified="2023-05-18T08:38:00.385Z" agent="Mozilla/5.0 (X11; Linux x86_64; rv:109.0) Gecko/20100101 Firefox/113.0" etag="ZiSyQcDCnwDdJr4korM4" version="21.2.8" type="device">
  <diagram name="Page-1" id="kyWeIiSW2GiNKq2zth9p">
    <mxGraphModel dx="462" dy="774" grid="1" gridSize="10" guides="1" tooltips="1" connect="1" arrows="1" fold="1" page="1" pageScale="1" pageWidth="850" pageHeight="1100" math="0" shadow="0">
      <root>
        <mxCell id="0" />
        <mxCell id="1" parent="0" />
        <mxCell id="vQMkIkaMRiZeIvOiWGSW-1" value="User" style="shape=umlActor;verticalLabelPosition=bottom;verticalAlign=top;html=1;" vertex="1" parent="1">
          <mxGeometry x="60" y="290" width="30" height="60" as="geometry" />
        </mxCell>
        <mxCell id="vQMkIkaMRiZeIvOiWGSW-3" value="" style="rounded=0;whiteSpace=wrap;html=1;" vertex="1" parent="1">
          <mxGeometry x="190" y="180" width="200" height="380" as="geometry" />
        </mxCell>
        <mxCell id="vQMkIkaMRiZeIvOiWGSW-5" value="ratings" style="text;html=1;strokeColor=none;fillColor=none;align=center;verticalAlign=middle;whiteSpace=wrap;rounded=0;" vertex="1" parent="1">
          <mxGeometry x="260" y="180" width="60" height="30" as="geometry" />
        </mxCell>
        <mxCell id="vQMkIkaMRiZeIvOiWGSW-9" value="searches for user" style="ellipse;whiteSpace=wrap;html=1;" vertex="1" parent="1">
          <mxGeometry x="235" y="210" width="110" height="60" as="geometry" />
        </mxCell>
        <mxCell id="vQMkIkaMRiZeIvOiWGSW-12" style="edgeStyle=orthogonalEdgeStyle;rounded=0;orthogonalLoop=1;jettySize=auto;html=1;entryX=1;entryY=0.5;entryDx=0;entryDy=0;endArrow=none;endFill=0;" edge="1" parent="1" source="vQMkIkaMRiZeIvOiWGSW-10" target="vQMkIkaMRiZeIvOiWGSW-9">
          <mxGeometry relative="1" as="geometry" />
        </mxCell>
        <mxCell id="vQMkIkaMRiZeIvOiWGSW-13" style="edgeStyle=orthogonalEdgeStyle;rounded=0;orthogonalLoop=1;jettySize=auto;html=1;exitX=0;exitY=1;exitDx=0;exitDy=0;exitPerimeter=0;entryX=1;entryY=0.5;entryDx=0;entryDy=0;endArrow=none;endFill=0;" edge="1" parent="1" source="vQMkIkaMRiZeIvOiWGSW-10" target="vQMkIkaMRiZeIvOiWGSW-11">
          <mxGeometry relative="1" as="geometry" />
        </mxCell>
        <mxCell id="vQMkIkaMRiZeIvOiWGSW-10" value="appointment backend" style="shape=umlActor;verticalLabelPosition=bottom;verticalAlign=top;html=1;outlineConnect=0;" vertex="1" parent="1">
          <mxGeometry x="480" y="210" width="30" height="60" as="geometry" />
        </mxCell>
        <mxCell id="vQMkIkaMRiZeIvOiWGSW-11" value="sets ratings for user" style="ellipse;whiteSpace=wrap;html=1;" vertex="1" parent="1">
          <mxGeometry x="230" y="320" width="120" height="80" as="geometry" />
        </mxCell>
        <mxCell id="vQMkIkaMRiZeIvOiWGSW-14" value="user views rating" style="ellipse;whiteSpace=wrap;html=1;" vertex="1" parent="1">
          <mxGeometry x="230" y="440" width="120" height="80" as="geometry" />
        </mxCell>
        <mxCell id="vQMkIkaMRiZeIvOiWGSW-15" style="edgeStyle=orthogonalEdgeStyle;rounded=0;orthogonalLoop=1;jettySize=auto;html=1;exitX=1;exitY=0.3333333333333333;exitDx=0;exitDy=0;exitPerimeter=0;entryX=0;entryY=0.5;entryDx=0;entryDy=0;endArrow=none;endFill=0;" edge="1" parent="1" source="vQMkIkaMRiZeIvOiWGSW-1" target="vQMkIkaMRiZeIvOiWGSW-9">
          <mxGeometry relative="1" as="geometry" />
        </mxCell>
        <mxCell id="vQMkIkaMRiZeIvOiWGSW-16" style="edgeStyle=orthogonalEdgeStyle;rounded=0;orthogonalLoop=1;jettySize=auto;html=1;exitX=1;exitY=1;exitDx=0;exitDy=0;exitPerimeter=0;entryX=0;entryY=0.5;entryDx=0;entryDy=0;endArrow=none;endFill=0;" edge="1" parent="1" source="vQMkIkaMRiZeIvOiWGSW-1" target="vQMkIkaMRiZeIvOiWGSW-14">
          <mxGeometry relative="1" as="geometry" />
        </mxCell>
      </root>
    </mxGraphModel>
  </diagram>
</mxfile>
